# xmcd CD database file
#
# Track frame offsets:
#	150
#	44475
#	97754
#	132020
#	170505
#	204480
#	245974
#	290628
#
# Disc length: 3943 seconds
#
# Revision: 0
# Processed by: cddbd v1.5.2PL0 Copyright (c) Steve Scherf et al.
# Submitted via: CDex 1.51
#
DISCID=730f6508
DTITLE=Ammachi - Hörst DU nicht mein Herz
DYEAR=2004
DGENRE=New Age
TTITLE0=Du bist die Schöpfung
TTITLE1=Sun le pukar
TTITLE2=Om Mata Kali
TTITLE3=Oh Amma erscheine mir
TTITLE4=Amma bitte
TTITLE5=Du bist das LIcht
TTITLE6=Aus dem Dunkel der Nacht
TTITLE7=Du bist die Schöpfung (live)
EXTD=YEAR: 2004
EXTT0=
EXTT1=
EXTT2=
EXTT3=
EXTT4=
EXTT5=
EXTT6=
EXTT7=
PLAYORDER=
